{
  "accessors": [
    {
      "bufferView": 3,
      "componentType": 5126,
      "count": 1859,
      "max": [
        24.847000122070313,
        49.942901611328125,
        24.846900939941406
      ],
      "min": [
        -24.847000122070313,
        0.0570698007941246,
        -24.846900939941406
      ],
      "type": "VEC3"
    },
    {
      "bufferView": 3,
      "byteOffset": 22308,
      "componentType": 5126,
      "count": 1859,
      "max": [
        0.9996997714042664,
        1.0,
        0.9994812607765198
      ],
      "min": [
        -0.9996997714042664,
        -1.0,
        -0.9996986389160156
      ],
      "type": "VEC3"
    },
    {
      "bufferView": 2,
      "componentType": 5126,
      "count": 1859,
      "max": [
        0.9821180105209351,
        0.9832299947738647
      ],
      "min": [
        0.017882000654935837,
        0.01179440040141344
      ],
      "type": "VEC2"
    },
    {
      "bufferView": 1,
      "componentType": 5125,
      "count": 10212,
      "type": "SCALAR"
    },
    {
      "bufferView": 3,
      "byteOffset": 44616,
      "componentType": 5126,
      "count": 1245,
      "max": [
        18.18939971923828,
        43.12049865722656,
        24.857200622558594
      ],
      "min": [
        -18.18939971923828,
        23.971494674682617,
        13.920251846313477
      ],
      "type": "VEC3"
    },
    {
      "bufferView": 3,
      "byteOffset": 59556,
      "componentType": 5126,
      "count": 1245,
      "max": [
        0.7312860488891602,
        0.7261049747467041,
        0.9997771382331848
      ],
      "min": [
        -0.731285035610199,
        -0.05120762437582016,
        0.5657827854156494
      ],
      "type": "VEC3"
    },
    {
      "bufferView": 2,
      "byteOffset": 14872,
      "componentType": 5126,
      "count": 1245,
      "max": [
        0.4872170090675354,
        1.9953399896621704
      ],
      "min": [
        0.012783300131559372,
        1.7552299499511719
      ],
      "type": "VEC2"
    },
    {
      "bufferView": 1,
      "byteOffset": 40848,
      "componentType": 5125,
      "count": 7110,
      "type": "SCALAR"
    },
    {
      "bufferView": 5,
      "componentType": 5126,
      "count": 14,
      "max": [
        1.0,
        0.0,
        3.2735304102970986e-06,
        0.0,
        1.0,
        1.0,
        0.0,
        0.0,
        0.904292643070221,
        0.0,
        1.0,
        0.0,
        0.0,
        9.049975051311776e-05,
        22.607315063476563,
        1.0
      ],
      "min": [
        -3.6199901387590216e-06,
        -1.0,
        0.0,
        0.0,
        0.0,
        -3.6199901387590216e-06,
        -0.904292643070221,
        0.0,
        0.0,
        0.0,
        0.4269130825996399,
        0.0,
        -25.0,
        0.0,
        0.0,
        1.0
      ],
      "type": "MAT4"
    },
    {
      "bufferView": 0,
      "componentType": 5123,
      "count": 1859,
      "type": "VEC4"
    },
    {
      "bufferView": 4,
      "componentType": 5126,
      "count": 1859,
      "max": [
        1.0,
        0.09000000357627869,
        0.04040404036641121,
        0.029999999329447746
      ],
      "min": [
        0.8899999856948853,
        0.0,
        0.0,
        0.0
      ],
      "type": "VEC4"
    },
    {
      "bufferView": 0,
      "byteOffset": 14872,
      "componentType": 5123,
      "count": 1245,
      "type": "VEC4"
    },
    {
      "bufferView": 4,
      "byteOffset": 29744,
      "componentType": 5126,
      "count": 1245,
      "max": [
        1.0,
        0.1600000113248825,
        0.15000000596046448,
        0.14000001549720764
      ],
      "min": [
        0.5699999928474426,
        0.0,
        0.0,
        0.0
      ],
      "type": "VEC4"
    }
  ],
  "asset": {
    "extras": {
      "author": "nguyenlouis32 (https://sketchfab.com/nguyenlouis32)",
      "license": "CC-BY-4.0 (http://creativecommons.org/licenses/by/4.0/)",
      "source": "https://sketchfab.com/3d-models/voltorb-cd8079ed3d664a738b6c694504e2ef28",
      "title": "Voltorb"
    },
    "generator": "Sketchfab-13.28.0",
    "version": "2.0"
  },
  "bufferViews": [
    {
      "buffer": 0,
      "byteLength": 24832,
      "byteStride": 8,
      "name": "shortBufferViews",
      "target": 34962
    },
    {
      "buffer": 0,
      "byteLength": 69288,
      "byteOffset": 24832,
      "name": "floatBufferViews",
      "target": 34963
    },
    {
      "buffer": 0,
      "byteLength": 24832,
      "byteOffset": 94120,
      "byteStride": 8,
      "name": "floatBufferViews",
      "target": 34962
    },
    {
      "buffer": 0,
      "byteLength": 74496,
      "byteOffset": 118952,
      "byteStride": 12,
      "name": "floatBufferViews",
      "target": 34962
    },
    {
      "buffer": 0,
      "byteLength": 49664,
      "byteOffset": 193448,
      "byteStride": 16,
      "name": "floatBufferViews",
      "target": 34962
    },
    {
      "buffer": 0,
      "byteLength": 896,
      "byteOffset": 243112,
      "name": "floatBufferViews"
    }
  ],
  "buffers": [
    {
      "byteLength": 244008,
      "uri": "scene.bin"
    }
  ],
  "images": [
    {
      "uri": "textures/BodySpc_baseColor.png"
    },
    {
      "uri": "textures/material_baseColor.png"
    }
  ],
  "materials": [
    {
      "doubleSided": true,
      "name": "BodySpc",
      "pbrMetallicRoughness": {
        "baseColorTexture": {
          "index": 0
        },
        "metallicFactor": 0.0,
        "roughnessFactor": 0.9577051494623774
      }
    },
    {
      "doubleSided": true,
      "name": "material",
      "pbrMetallicRoughness": {
        "baseColorTexture": {
          "index": 1
        },
        "metallicFactor": 0.0,
        "roughnessFactor": 0.9577051494623774
      }
    }
  ],
  "meshes": [
    {
      "name": "mesh_0_pm0100_00_Skin_BodySpc_0",
      "primitives": [
        {
          "attributes": {
            "JOINTS_0": 9,
            "NORMAL": 1,
            "POSITION": 0,
            "TEXCOORD_0": 2,
            "WEIGHTS_0": 10
          },
          "indices": 3,
          "material": 0,
          "mode": 4
        }
      ]
    },
    {
      "name": "mesh_1_pm0100_00_Skin_Eye_0",
      "primitives": [
        {
          "attributes": {
            "JOINTS_0": 11,
            "NORMAL": 5,
            "POSITION": 4,
            "TEXCOORD_0": 6,
            "WEIGHTS_0": 12
          },
          "indices": 7,
          "material": 1,
          "mode": 4
        }
      ]
    }
  ],
  "nodes": [
    {
      "children": [
        1
      ],
      "matrix": [
        1.0,
        0.0,
        0.0,
        0.0,
        0.0,
        2.220446049250313e-16,
        -1.0,
        0.0,
        0.0,
        1.0,
        2.220446049250313e-16,
        0.0,
        0.0,
        0.0,
        0.0,
        1.0
      ],
      "name": "Sketchfab_model"
    },
    {
      "children": [
        2
      ],
      "matrix": [
        0.009999999776482582,
        0.0,
        0.0,
        0.0,
        0.0,
        0.0,
        0.009999999776482582,
        0.0,
        0.0,
        -0.009999999776482582,
        0.0,
        0.0,
        0.0,
        0.0,
        0.0,
        1.0
      ],
      "name": "pm0100_00.fbx"
    },
    {
      "children": [
        3
      ],
      "name": "RootNode"
    },
    {
      "children": [
        4,
        6,
        8,
        5,
        7
      ],
      "name": "Object_3"
    },
    {
      "children": [
        9
      ],
      "name": "_rootJoint"
    },
    {
      "matrix": [
        1.0,
        0.0,
        0.0,
        0.0,
        0.0,
        1.0,
        -5.551115123125783e-17,
        0.0,
        0.0,
        5.551115123125784e-17,
        1.0000000000000002,
        0.0,
        0.0,
        0.0,
        1.7763568394002505e-15,
        1.0
      ],
      "name": "Object_5"
    },
    {
      "mesh": 0,
      "name": "Object_6",
      "skin": 0
    },
    {
      "matrix": [
        1.0,
        0.0,
        0.0,
        0.0,
        0.0,
        1.0,
        -5.551115123125783e-17,
        0.0,
        0.0,
        5.551115123125784e-17,
        1.0000000000000002,
        0.0,
        0.0,
        0.0,
        1.7763568394002505e-15,
        1.0
      ],
      "name": "Object_7"
    },
    {
      "mesh": 1,
      "name": "Object_8",
      "skin": 0
    },
    {
      "children": [
        10,
        21
      ],
      "name": "pm0100_00_012"
    },
    {
      "children": [
        11
      ],
      "name": "Origin_010"
    },
    {
      "children": [
        12,
        13
      ],
      "name": "Waist_09",
      "rotation": [
        0.0,
        0.0,
        0.7071080803871155,
        0.7071055173873901
      ],
      "translation": [
        0.0,
        25.0,
        0.0
      ]
    },
    {
      "name": "EndWaist_00",
      "rotation": [
        0.0,
        0.0,
        2.117582368135751e-22,
        1.0
      ],
      "translation": [
        25.162799835205078,
        -1.6949159090118293e-12,
        0.0
      ]
    },
    {
      "children": [
        14,
        15,
        17,
        19
      ],
      "name": "EyeRoot_08",
      "rotation": [
        -9.628329390558039e-15,
        -0.5352975726127625,
        -1.5192857280403593e-14,
        0.844663679599762
      ],
      "translation": [
        0.0,
        -2.9558577807620168e-12,
        0.0
      ]
    },
    {
      "name": "EndEyeRoot_03",
      "rotation": [
        1.4281990236178314e-14,
        2.5295041668899065e-12,
        -7.678830546409537e-15,
        1.0
      ],
      "scale": [
        1.0000001192092896,
        1.0,
        1.0000001192092896
      ],
      "translation": [
        27.63030433654785,
        -6.5242932584252955e-12,
        -8.380022791243391e-07
      ]
    },
    {
      "children": [
        16
      ],
      "name": "Eye1_04",
      "rotation": [
        1.4281990236178314e-14,
        2.5295041668899065e-12,
        -7.678830546409537e-15,
        1.0
      ],
      "scale": [
        1.0000001192092896,
        1.0,
        1.0000001192092896
      ],
      "translation": [
        8.940696716308594e-08,
        -2.9558577807620168e-12,
        -5.960464477539063e-07
      ]
    },
    {
      "name": "EndEye1_02",
      "rotation": [
        1.428198854211242e-14,
        2.5294486557386753e-12,
        -7.678832240475431e-15,
        1.0
      ],
      "scale": [
        1.0000001192092896,
        1.0,
        1.0000001192092896
      ],
      "translation": [
        27.63030433654785,
        -6.5242932584252955e-12,
        -8.380022791243391e-07
      ]
    },
    {
      "children": [
        18
      ],
      "name": "Eye2_06",
      "rotation": [
        1.4281990236178314e-14,
        2.5295041668899065e-12,
        -7.678830546409537e-15,
        1.0
      ],
      "scale": [
        1.0000001192092896,
        1.0,
        1.0000001192092896
      ],
      "translation": [
        8.940696716308594e-08,
        -2.9558577807620168e-12,
        -5.960464477539063e-07
      ]
    },
    {
      "name": "EndEye2_05",
      "rotation": [
        1.428198854211242e-14,
        2.5294486557386753e-12,
        -7.678832240475431e-15,
        1.0
      ],
      "scale": [
        1.0000001192092896,
        1.0,
        1.0000001192092896
      ],
      "translation": [
        27.63030433654785,
        -6.5242932584252955e-12,
        -8.380022791243391e-07
      ]
    },
    {
      "children": [
        20
      ],
      "name": "Eye3_07",
      "rotation": [
        1.4281990236178314e-14,
        2.5295041668899065e-12,
        -7.678830546409537e-15,
        1.0
      ],
      "scale": [
        1.0000001192092896,
        1.0,
        1.0000001192092896
      ],
      "translation": [
        8.940696716308594e-08,
        -2.9558577807620168e-12,
        -5.960464477539063e-07
      ]
    },
    {
      "name": "EndEye3_01",
      "rotation": [
        1.428198854211242e-14,
        2.5294486557386753e-12,
        -7.678832240475431e-15,
        1.0
      ],
      "scale": [
        1.0000001192092896,
        1.0,
        1.0000001192092896
      ],
      "translation": [
        27.63030433654785,
        -6.5242932584252955e-12,
        -8.380022791243391e-07
      ]
    },
    {
      "name": "pm0100_00_Skin_011"
    }
  ],
  "samplers": [
    {
      "magFilter": 9729,
      "minFilter": 9987,
      "wrapS": 10497,
      "wrapT": 10497
    }
  ],
  "scene": 0,
  "scenes": [
    {
      "name": "Sketchfab_Scene",
      "nodes": [
        0
      ]
    }
  ],
  "skins": [
    {
      "inverseBindMatrices": 8,
      "joints": [
        4,
        9,
        10,
        11,
        12,
        13,
        14,
        15,
        16,
        17,
        18,
        19,
        20,
        21
      ],
      "skeleton": 4
    }
  ],
  "textures": [
    {
      "sampler": 0,
      "source": 0
    },
    {
      "sampler": 0,
      "source": 1
    }
  ]
}
