{
  "accessors": [
    {
      "bufferView": 2,
      "componentType": 5126,
      "count": 1602,
      "max": [
        392.86199951171875,
        576.6381225585938,
        404.2030944824219
      ],
      "min": [
        -392.86199951171875,
        -0.26487988233566284,
        -334.1142578125
      ],
      "type": "VEC3"
    },
    {
      "bufferView": 2,
      "byteOffset": 19224,
      "componentType": 5126,
      "count": 1602,
      "max": [
        0.9996827244758606,
        1.0,
        0.9996826648712158
      ],
      "min": [
        -0.9996827244758606,
        -1.0,
        -0.9996826648712158
      ],
      "type": "VEC3"
    },
    {
      "bufferView": 3,
      "componentType": 5126,
      "count": 1602,
      "max": [
        1.0,
        0.9988076686859131,
        0.9999746084213257,
        1.0
      ],
      "min": [
        -0.9931349754333496,
        -1.0,
        -0.9999751448631287,
        -1.0
      ],
      "type": "VEC4"
    },
    {
      "bufferView": 1,
      "componentType": 5126,
      "count": 1602,
      "max": [
        0.9743424654006958,
        0.9584474563598633
      ],
      "min": [
        0.013279557228088379,
        0.02268671989440918
      ],
      "type": "VEC2"
    },
    {
      "bufferView": 0,
      "componentType": 5125,
      "count": 6456,
      "type": "SCALAR"
    },
    {
      "bufferView": 2,
      "byteOffset": 38448,
      "componentType": 5126,
      "count": 474,
      "max": [
        299.57928466796875,
        193.7592010498047,
        24.189117431640625
      ],
      "min": [
        -217.5557403564453,
        -0.26487913727760315,
        -289.6441650390625
      ],
      "type": "VEC3"
    },
    {
      "bufferView": 2,
      "byteOffset": 44136,
      "componentType": 5126,
      "count": 474,
      "max": [
        0.9990745186805725,
        1.0,
        1.0
      ],
      "min": [
        -0.9990745186805725,
        -1.0,
        -1.0
      ],
      "type": "VEC3"
    },
    {
      "bufferView": 3,
      "byteOffset": 25632,
      "componentType": 5126,
      "count": 474,
      "max": [
        1.0,
        0.9999943971633911,
        0.9990898370742798,
        1.0
      ],
      "min": [
        -1.0,
        -0.9985960721969604,
        -0.999062180519104,
        -1.0
      ],
      "type": "VEC4"
    },
    {
      "bufferView": 1,
      "byteOffset": 12816,
      "componentType": 5126,
      "count": 474,
      "max": [
        0.9777845144271851,
        0.9153393507003784
      ],
      "min": [
        0.03429996967315674,
        0.04494631290435791
      ],
      "type": "VEC2"
    },
    {
      "bufferView": 0,
      "byteOffset": 25824,
      "componentType": 5125,
      "count": 1044,
      "type": "SCALAR"
    },
    {
      "bufferView": 2,
      "byteOffset": 49824,
      "componentType": 5126,
      "count": 1342,
      "max": [
        333.74871826171875,
        119.21322631835938,
        224.27352905273438
      ],
      "min": [
        -268.501953125,
        -15.318586349487305,
        -310.3409118652344
      ],
      "type": "VEC3"
    },
    {
      "bufferView": 2,
      "byteOffset": 65928,
      "componentType": 5126,
      "count": 1342,
      "max": [
        1.0,
        1.0,
        1.0
      ],
      "min": [
        -1.0,
        -1.0,
        -1.0
      ],
      "type": "VEC3"
    },
    {
      "bufferView": 3,
      "byteOffset": 33216,
      "componentType": 5126,
      "count": 1342,
      "max": [
        1.0,
        1.0,
        1.0,
        1.0
      ],
      "min": [
        -1.0,
        -1.0,
        -1.0,
        -1.0
      ],
      "type": "VEC4"
    },
    {
      "bufferView": 1,
      "byteOffset": 16608,
      "componentType": 5126,
      "count": 1342,
      "max": [
        0.9442822933197021,
        0.8776661157608032
      ],
      "min": [
        0.046402573585510254,
        0.06823179125785828
      ],
      "type": "VEC2"
    },
    {
      "bufferView": 0,
      "byteOffset": 30000,
      "componentType": 5125,
      "count": 3780,
      "type": "SCALAR"
    },
    {
      "bufferView": 2,
      "byteOffset": 82032,
      "componentType": 5126,
      "count": 418,
      "max": [
        351.7537841796875,
        15.326658248901367,
        364.975830078125
      ],
      "min": [
        -386.148193359375,
        -230.9778594970703,
        -404.2030944824219
      ],
      "type": "VEC3"
    },
    {
      "bufferView": 2,
      "byteOffset": 87048,
      "componentType": 5126,
      "count": 418,
      "max": [
        0.9422661066055298,
        0.9999995827674866,
        0.9937502145767212
      ],
      "min": [
        -0.9909922480583191,
        -0.994994044303894,
        -0.9819780588150024
      ],
      "type": "VEC3"
    },
    {
      "bufferView": 3,
      "byteOffset": 54688,
      "componentType": 5126,
      "count": 418,
      "max": [
        0.9995390772819519,
        0.9422388076782227,
        0.34075620770454407,
        1.0
      ],
      "min": [
        -0.989334225654602,
        -0.9743644595146179,
        -0.41151687502861023,
        1.0
      ],
      "type": "VEC4"
    },
    {
      "bufferView": 1,
      "byteOffset": 27344,
      "componentType": 5126,
      "count": 418,
      "max": [
        0.9689329862594604,
        0.98551344871521
      ],
      "min": [
        0.017011404037475586,
        0.015381874516606331
      ],
      "type": "VEC2"
    },
    {
      "bufferView": 0,
      "byteOffset": 45120,
      "componentType": 5125,
      "count": 2304,
      "type": "SCALAR"
    }
  ],
  "asset": {
    "extras": {
      "author": "courina.camp (https://sketchfab.com/courina.camp)",
      "license": "CC-BY-4.0 (http://creativecommons.org/licenses/by/4.0/)",
      "source": "https://sketchfab.com/3d-models/mushroom-house-diorama-47830a4d67a94d3f9317585c0856d7d0",
      "title": "Mushroom House Diorama"
    },
    "generator": "Sketchfab-13.23.0",
    "version": "2.0"
  },
  "bufferViews": [
    {
      "buffer": 0,
      "byteLength": 54336,
      "name": "floatBufferViews",
      "target": 34963
    },
    {
      "buffer": 0,
      "byteLength": 30688,
      "byteOffset": 54336,
      "byteStride": 8,
      "name": "floatBufferViews",
      "target": 34962
    },
    {
      "buffer": 0,
      "byteLength": 92064,
      "byteOffset": 85024,
      "byteStride": 12,
      "name": "floatBufferViews",
      "target": 34962
    },
    {
      "buffer": 0,
      "byteLength": 61376,
      "byteOffset": 177088,
      "byteStride": 16,
      "name": "floatBufferViews",
      "target": 34962
    }
  ],
  "buffers": [
    {
      "byteLength": 238464,
      "uri": "f.bin"
    }
  ],
  "extensionsUsed": [
    "KHR_materials_transmission"
  ],
  "images": [
    {
      "uri": "textures/ThemedObjects2_baseColor.png"
    },
    {
      "uri": "textures/ThemedObjects2_metallicRoughness.png"
    },
    {
      "uri": "textures/ThemedObjects2_emissive.png"
    },
    {
      "uri": "textures/ThemedObjects2_normal.png"
    },
    {
      "uri": "textures/ThemedObjects_baseColor.png"
    },
    {
      "uri": "textures/ThemedObjects_metallicRoughness.png"
    },
    {
      "uri": "textures/ThemedObjects_emissive.png"
    },
    {
      "uri": "textures/ThemedObjects_normal.png"
    },
    {
      "uri": "textures/ThemedObjects_transmission.png"
    },
    {
      "uri": "textures/Props_baseColor.png"
    },
    {
      "uri": "textures/Props_metallicRoughness.png"
    },
    {
      "uri": "textures/Props_emissive.png"
    },
    {
      "uri": "textures/Props_normal.png"
    },
    {
      "uri": "textures/Base_baseColor.png"
    },
    {
      "uri": "textures/Base_metallicRoughness.png"
    },
    {
      "uri": "textures/Base_normal.png"
    }
  ],
  "materials": [
    {
      "alphaMode": "BLEND",
      "doubleSided": true,
      "emissiveFactor": [
        1.0,
        1.0,
        1.0
      ],
      "emissiveTexture": {
        "index": 2
      },
      "name": "ThemedObjects2",
      "normalTexture": {
        "index": 3
      },
      "pbrMetallicRoughness": {
        "baseColorTexture": {
          "index": 0
        },
        "metallicRoughnessTexture": {
          "index": 1
        }
      }
    },
    {
      "alphaMode": "BLEND",
      "doubleSided": true,
      "emissiveFactor": [
        1.0,
        1.0,
        1.0
      ],
      "emissiveTexture": {
        "index": 6
      },
      "extensions": {
        "KHR_materials_transmission": {
          "transmissionFactor": 1.0,
          "transmissionTexture": {
            "index": 8
          }
        }
      },
      "name": "ThemedObjects",
      "normalTexture": {
        "index": 7
      },
      "pbrMetallicRoughness": {
        "baseColorTexture": {
          "index": 4
        },
        "metallicRoughnessTexture": {
          "index": 5
        }
      }
    },
    {
      "alphaMode": "BLEND",
      "doubleSided": true,
      "emissiveFactor": [
        1.0,
        1.0,
        1.0
      ],
      "emissiveTexture": {
        "index": 11
      },
      "name": "Props",
      "normalTexture": {
        "index": 12
      },
      "pbrMetallicRoughness": {
        "baseColorTexture": {
          "index": 9
        },
        "metallicRoughnessTexture": {
          "index": 10
        }
      }
    },
    {
      "alphaMode": "BLEND",
      "doubleSided": true,
      "name": "Base",
      "normalTexture": {
        "index": 15
      },
      "pbrMetallicRoughness": {
        "baseColorTexture": {
          "index": 13
        },
        "metallicRoughnessTexture": {
          "index": 14
        }
      }
    }
  ],
  "meshes": [
    {
      "name": "polySurface188_ThemedObjects2_0",
      "primitives": [
        {
          "attributes": {
            "NORMAL": 1,
            "POSITION": 0,
            "TANGENT": 2,
            "TEXCOORD_0": 3
          },
          "indices": 4,
          "material": 0,
          "mode": 4
        }
      ]
    },
    {
      "name": "polySurface188_ThemedObjects_0",
      "primitives": [
        {
          "attributes": {
            "NORMAL": 6,
            "POSITION": 5,
            "TANGENT": 7,
            "TEXCOORD_0": 8
          },
          "indices": 9,
          "material": 1,
          "mode": 4
        }
      ]
    },
    {
      "name": "polySurface188_Props_0",
      "primitives": [
        {
          "attributes": {
            "NORMAL": 11,
            "POSITION": 10,
            "TANGENT": 12,
            "TEXCOORD_0": 13
          },
          "indices": 14,
          "material": 2,
          "mode": 4
        }
      ]
    },
    {
      "name": "polySurface188_Base_0",
      "primitives": [
        {
          "attributes": {
            "NORMAL": 16,
            "POSITION": 15,
            "TANGENT": 17,
            "TEXCOORD_0": 18
          },
          "indices": 19,
          "material": 3,
          "mode": 4
        }
      ]
    }
  ],
  "nodes": [
    {
      "children": [
        1
      ],
      "matrix": [
        -1.0,
        -1.6081226229577284e-16,
        -2.8327693431939995e-16,
        0.0,
        -2.832769343193999e-16,
        -3.828568672208042e-16,
        1.0,
        0.0,
        -1.6081226229577292e-16,
        1.0,
        3.828568672208042e-16,
        0.0,
        0.0,
        0.0,
        0.0,
        1.0
      ],
      "name": "Sketchfab_model"
    },
    {
      "children": [
        2
      ],
      "matrix": [
        0.009999999776482582,
        0.0,
        0.0,
        0.0,
        0.0,
        0.0,
        0.009999999776482582,
        0.0,
        0.0,
        -0.009999999776482582,
        0.0,
        0.0,
        0.0,
        0.0,
        0.0,
        1.0
      ],
      "name": "8be4457ae20740fe8ac87c341b528465.fbx"
    },
    {
      "children": [
        3
      ],
      "name": "RootNode"
    },
    {
      "children": [
        4,
        5,
        6,
        7
      ],
      "name": "polySurface188"
    },
    {
      "mesh": 0,
      "name": "polySurface188_ThemedObjects2_0"
    },
    {
      "mesh": 1,
      "name": "polySurface188_ThemedObjects_0"
    },
    {
      "mesh": 2,
      "name": "polySurface188_Props_0"
    },
    {
      "mesh": 3,
      "name": "polySurface188_Base_0"
    }
  ],
  "samplers": [
    {
      "magFilter": 9729,
      "minFilter": 9987,
      "wrapS": 10497,
      "wrapT": 10497
    }
  ],
  "scene": 0,
  "scenes": [
    {
      "name": "Sketchfab_Scene",
      "nodes": [
        0
      ]
    }
  ],
  "textures": [
    {
      "sampler": 0,
      "source": 0
    },
    {
      "sampler": 0,
      "source": 1
    },
    {
      "sampler": 0,
      "source": 2
    },
    {
      "sampler": 0,
      "source": 3
    },
    {
      "sampler": 0,
      "source": 4
    },
    {
      "sampler": 0,
      "source": 5
    },
    {
      "sampler": 0,
      "source": 6
    },
    {
      "sampler": 0,
      "source": 7
    },
    {
      "sampler": 0,
      "source": 8
    },
    {
      "sampler": 0,
      "source": 9
    },
    {
      "sampler": 0,
      "source": 10
    },
    {
      "sampler": 0,
      "source": 11
    },
    {
      "sampler": 0,
      "source": 12
    },
    {
      "sampler": 0,
      "source": 13
    },
    {
      "sampler": 0,
      "source": 14
    },
    {
      "sampler": 0,
      "source": 15
    }
  ]
}
