{
  "accessors": [
    {
      "bufferView": 2,
      "componentType": 5126,
      "count": 240,
      "max": [
        0.9510578513145447,
        1.0,
        0.9999999403953552
      ],
      "min": [
        -0.9510578513145447,
        -1.0,
        -0.9999999403953552
      ],
      "type": "VEC3"
    },
    {
      "bufferView": 2,
      "byteOffset": 2880,
      "componentType": 5126,
      "count": 240,
      "max": [
        0.9920774102210999,
        0.9550768136978149,
        0.9435215592384338
      ],
      "min": [
        -0.9920774102210999,
        -0.958519697189331,
        -0.9465274810791016
      ],
      "type": "VEC3"
    },
    {
      "bufferView": 1,
      "componentType": 5126,
      "count": 240,
      "max": [
        1.0,
        0.47238200902938843
      ],
      "min": [
        0.0,
        0.0
      ],
      "type": "VEC2"
    },
    {
      "bufferView": 0,
      "componentType": 5125,
      "count": 240,
      "type": "SCALAR"
    },
    {
      "bufferView": 2,
      "byteOffset": 5760,
      "componentType": 5126,
      "count": 240,
      "max": [
        0.9510578513145447,
        1.0,
        0.9999999403953552
      ],
      "min": [
        -0.9510578513145447,
        -1.0,
        -0.9999999403953552
      ],
      "type": "VEC3"
    },
    {
      "bufferView": 2,
      "byteOffset": 8640,
      "componentType": 5126,
      "count": 240,
      "max": [
        0.9920774102210999,
        0.9550768136978149,
        0.9435215592384338
      ],
      "min": [
        -0.9920774102210999,
        -0.958519697189331,
        -0.9465274810791016
      ],
      "type": "VEC3"
    },
    {
      "bufferView": 1,
      "byteOffset": 1920,
      "componentType": 5126,
      "count": 240,
      "max": [
        1.0,
        0.47238200902938843
      ],
      "min": [
        0.0,
        0.0
      ],
      "type": "VEC2"
    },
    {
      "bufferView": 0,
      "byteOffset": 960,
      "componentType": 5125,
      "count": 240,
      "type": "SCALAR"
    },
    {
      "bufferView": 2,
      "byteOffset": 11520,
      "componentType": 5126,
      "count": 240,
      "max": [
        0.9510578513145447,
        1.0,
        0.9999999403953552
      ],
      "min": [
        -0.9510578513145447,
        -1.0,
        -0.9999999403953552
      ],
      "type": "VEC3"
    },
    {
      "bufferView": 2,
      "byteOffset": 14400,
      "componentType": 5126,
      "count": 240,
      "max": [
        0.9920774102210999,
        0.9550768136978149,
        0.9435215592384338
      ],
      "min": [
        -0.9920774102210999,
        -0.958519697189331,
        -0.9465274810791016
      ],
      "type": "VEC3"
    },
    {
      "bufferView": 1,
      "byteOffset": 3840,
      "componentType": 5126,
      "count": 240,
      "max": [
        1.0,
        0.47238200902938843
      ],
      "min": [
        0.0,
        0.0
      ],
      "type": "VEC2"
    },
    {
      "bufferView": 0,
      "byteOffset": 1920,
      "componentType": 5125,
      "count": 240,
      "type": "SCALAR"
    },
    {
      "bufferView": 2,
      "byteOffset": 17280,
      "componentType": 5126,
      "count": 240,
      "max": [
        0.9510578513145447,
        1.0,
        0.9999999403953552
      ],
      "min": [
        -0.9510578513145447,
        -1.0,
        -0.9999999403953552
      ],
      "type": "VEC3"
    },
    {
      "bufferView": 2,
      "byteOffset": 20160,
      "componentType": 5126,
      "count": 240,
      "max": [
        0.9920774102210999,
        0.9550768136978149,
        0.9435215592384338
      ],
      "min": [
        -0.9920774102210999,
        -0.958519697189331,
        -0.9465274810791016
      ],
      "type": "VEC3"
    },
    {
      "bufferView": 1,
      "byteOffset": 5760,
      "componentType": 5126,
      "count": 240,
      "max": [
        1.0,
        0.47238200902938843
      ],
      "min": [
        0.0,
        0.0
      ],
      "type": "VEC2"
    },
    {
      "bufferView": 0,
      "byteOffset": 2880,
      "componentType": 5125,
      "count": 240,
      "type": "SCALAR"
    }
  ],
  "asset": {
    "extras": {
      "author": "KissyMissyAndPJLover1221 (https://sketchfab.com/KissyMissyAndPJLover1221)",
      "license": "CC-BY-4.0 (http://creativecommons.org/licenses/by/4.0/)",
      "source": "https://sketchfab.com/3d-models/ruby-gemstones-5ac69eb798d34a24aaa1a2b45d16c9e3",
      "title": "Ruby Gemstones"
    },
    "generator": "Sketchfab-14.8.0",
    "version": "2.0"
  },
  "bufferViews": [
    {
      "buffer": 0,
      "byteLength": 3840,
      "name": "floatBufferViews",
      "target": 34963
    },
    {
      "buffer": 0,
      "byteLength": 7680,
      "byteOffset": 3840,
      "byteStride": 8,
      "name": "floatBufferViews",
      "target": 34962
    },
    {
      "buffer": 0,
      "byteLength": 23040,
      "byteOffset": 11520,
      "byteStride": 12,
      "name": "floatBufferViews",
      "target": 34962
    }
  ],
  "buffers": [
    {
      "byteLength": 34560,
      "uri": "scene.bin"
    }
  ],
  "images": [
    {
      "uri": "textures/Scene_-_Root_metallicRoughness.png"
    }
  ],
  "materials": [
    {
      "doubleSided": true,
      "name": "Scene_-_Root",
      "pbrMetallicRoughness": {
        "baseColorFactor": [
          0.8373390532284241,
          0.03722762573042169,
          0.06762207773955876,
          1.0
        ],
        "metallicRoughnessTexture": {
          "index": 0
        },
        "roughnessFactor": 0.0933305701503091
      }
    }
  ],
  "meshes": [
    {
      "name": "Object_0",
      "primitives": [
        {
          "attributes": {
            "NORMAL": 1,
            "POSITION": 0,
            "TEXCOORD_0": 2
          },
          "indices": 3,
          "material": 0,
          "mode": 4
        }
      ]
    },
    {
      "name": "Object_1",
      "primitives": [
        {
          "attributes": {
            "NORMAL": 5,
            "POSITION": 4,
            "TEXCOORD_0": 6
          },
          "indices": 7,
          "material": 0,
          "mode": 4
        }
      ]
    },
    {
      "name": "Object_2",
      "primitives": [
        {
          "attributes": {
            "NORMAL": 9,
            "POSITION": 8,
            "TEXCOORD_0": 10
          },
          "indices": 11,
          "material": 0,
          "mode": 4
        }
      ]
    },
    {
      "name": "Object_3",
      "primitives": [
        {
          "attributes": {
            "NORMAL": 13,
            "POSITION": 12,
            "TEXCOORD_0": 14
          },
          "indices": 15,
          "material": 0,
          "mode": 4
        }
      ]
    }
  ],
  "nodes": [
    {
      "children": [
        1
      ],
      "matrix": [
        1.0,
        0.0,
        0.0,
        0.0,
        0.0,
        2.220446049250313e-16,
        -1.0,
        0.0,
        0.0,
        1.0,
        2.220446049250313e-16,
        0.0,
        0.0,
        0.0,
        0.0,
        1.0
      ],
      "name": "Sketchfab_model"
    },
    {
      "children": [
        2
      ],
      "name": "root"
    },
    {
      "children": [
        3,
        5,
        7,
        9
      ],
      "matrix": [
        1.0,
        0.0,
        0.0,
        0.0,
        0.0,
        2.220446049250313e-16,
        1.0,
        0.0,
        0.0,
        -1.0,
        2.220446049250313e-16,
        0.0,
        0.0,
        0.0,
        0.0,
        1.0
      ],
      "name": "GLTF_SceneRootNode"
    },
    {
      "children": [
        4
      ],
      "matrix": [
        0.676557242193937,
        0.3349757050074099,
        -0.6415311762241209,
        0.0,
        -0.12892046804502175,
        0.5149143652592274,
        0.13290348054491855,
        0.0,
        0.39968589295229195,
        -0.007687973343624735,
        0.41749350789960027,
        0.0,
        0.0,
        0.9294410347938538,
        -0.5923771858215332,
        1.0
      ],
      "name": "Icosphere_2"
    },
    {
      "mesh": 0,
      "name": "Object_4"
    },
    {
      "children": [
        6
      ],
      "matrix": [
        0.8938679110628063,
        0.0,
        0.49130233946917556,
        0.0,
        0.0,
        0.5471934080123901,
        0.0,
        0.0,
        -0.3234783308109446,
        0.0,
        0.5885314939645298,
        0.0,
        0.005614817142486572,
        0.777738094329834,
        -1.7601066827774048,
        1.0
      ],
      "name": "Icosphere.001_3"
    },
    {
      "mesh": 1,
      "name": "Object_6"
    },
    {
      "children": [
        8
      ],
      "matrix": [
        0.8432542876736722,
        0.3349756954791676,
        0.3977614419925547,
        0.0,
        -0.17061665358648348,
        0.5149143672189482,
        -0.07192897693332063,
        0.0,
        -0.24407194579334723,
        -0.007687968204679422,
        0.5239069836517262,
        0.0,
        -0.6957778930664063,
        0.9818313121795654,
        -1.093520998954773,
        1.0
      ],
      "name": "Icosphere.002_4"
    },
    {
      "mesh": 2,
      "name": "Object_8"
    },
    {
      "children": [
        10
      ],
      "matrix": [
        -0.8202812602959618,
        0.28890462860108523,
        0.4780026176766639,
        0.0,
        -0.18177764282073372,
        -0.5161176698314228,
        -2.1400543773508106e-08,
        0.0,
        0.2768272851297868,
        -0.09749912806370256,
        0.5339807236900949,
        0.0,
        0.005614817142486572,
        1.3914635181427002,
        -1.389339566230774,
        1.0
      ],
      "name": "Icosphere.003_5"
    },
    {
      "mesh": 3,
      "name": "Object_10"
    }
  ],
  "samplers": [
    {
      "magFilter": 9729,
      "minFilter": 9987,
      "wrapS": 10497,
      "wrapT": 10497
    }
  ],
  "scene": 0,
  "scenes": [
    {
      "name": "Sketchfab_Scene",
      "nodes": [
        0
      ]
    }
  ],
  "textures": [
    {
      "sampler": 0,
      "source": 0
    }
  ]
}
